<?xml version="1.0" encoding="UTF-8" ?>
<!DOCTYPE svg PUBLIC "-//W3C//DTD SVG 1.1//EN" "http://www.w3.org/Graphics/SVG/1.1/DTD/svg11.dtd">
<svg width="726pt" height="750pt" viewBox="0 0 726 750" version="1.1" xmlns="http://www.w3.org/2000/svg">
<g id="#ffffffff">
<path fill="#ffffff" opacity="1.00" d=" M 297.08 32.16 C 297.74 32.18 299.07 32.23 299.73 32.26 C 299.79 39.86 299.70 47.47 299.78 55.07 C 298.48 55.19 297.37 54.82 296.48 53.96 C 293.69 55.65 289.72 56.43 287.30 53.68 C 283.93 49.32 284.43 41.40 289.81 38.83 C 292.10 37.65 294.67 38.51 297.00 39.09 C 297.00 36.78 297.02 34.47 297.08 32.16 M 290.36 41.42 C 287.43 43.56 287.43 48.04 288.81 51.09 C 290.36 54.16 295.02 53.22 296.89 51.01 C 297.01 47.83 297.40 44.48 296.64 41.38 C 294.64 40.74 292.26 40.26 290.36 41.42 Z" />
<path fill="#ffffff" opacity="1.00" d=" M 110.06 33.21 C 114.67 33.41 119.78 32.54 123.87 35.16 C 129.95 39.22 129.69 49.57 123.43 53.33 C 119.37 55.69 114.48 54.87 110.01 54.99 C 110.04 47.73 109.94 40.47 110.06 33.21 M 113.00 35.71 C 112.99 41.31 113.00 46.92 112.99 52.53 C 115.84 52.45 118.87 52.74 121.50 51.42 C 125.86 49.14 126.30 42.77 123.88 38.94 C 121.42 35.49 116.77 35.71 113.00 35.71 Z" />
<path fill="#ffffff" opacity="1.00" d=" M 150.75 33.90 C 151.41 33.95 152.74 34.05 153.41 34.10 C 153.51 35.63 153.50 37.17 153.52 38.71 C 155.68 39.12 159.87 37.42 159.41 40.98 C 157.44 40.99 155.48 41.00 153.51 41.00 C 153.54 44.33 153.30 47.67 153.66 50.99 C 154.42 53.66 157.54 52.43 159.49 52.51 C 159.82 56.54 153.30 55.90 151.64 53.38 C 149.96 49.66 151.01 45.36 150.81 41.39 C 148.40 41.45 148.36 38.39 150.77 38.41 C 150.76 36.90 150.75 35.40 150.75 33.90 Z" />
<path fill="#ffffff" opacity="1.00" d=" M 196.07 33.90 C 196.71 33.95 198.00 34.04 198.65 34.09 C 198.72 35.62 198.74 37.15 198.76 38.69 C 200.70 38.71 202.65 38.75 204.61 38.79 C 205.25 42.43 200.87 40.56 198.76 41.01 C 198.80 44.32 198.55 47.63 198.91 50.92 C 199.56 53.68 202.83 52.45 204.77 52.49 C 205.11 56.18 200.54 55.50 198.26 54.66 C 195.56 53.17 196.05 49.62 195.99 47.02 C 195.79 44.53 197.06 41.06 193.87 40.06 C 196.31 38.77 196.13 36.26 196.07 33.90 Z" />
<path fill="#ffffff" opacity="1.00" d=" M 133.16 41.24 C 135.59 37.82 140.98 37.17 144.19 39.83 C 146.18 41.66 146.18 44.50 146.37 46.99 C 142.22 47.00 138.07 46.94 133.93 47.11 C 134.59 48.96 134.98 51.32 137.06 52.14 C 140.03 53.59 143.28 52.24 146.03 50.92 C 146.02 51.69 146.00 53.23 145.99 53.99 C 142.89 54.99 139.47 55.95 136.30 54.63 C 131.00 52.83 130.14 45.34 133.16 41.24 M 133.85 44.79 C 137.13 45.04 140.43 45.08 143.72 44.98 C 143.39 42.58 141.76 40.07 139.01 40.46 C 136.30 40.27 134.98 42.80 133.85 44.79 Z" />
<path fill="#ffffff" opacity="1.00" d=" M 165.88 38.83 C 168.66 37.76 172.39 37.95 174.42 40.38 C 175.99 42.21 175.91 44.73 176.13 46.99 C 172.00 47.00 167.87 46.97 163.75 47.02 C 164.26 48.98 164.78 51.38 166.92 52.19 C 169.91 53.57 173.08 52.14 175.88 51.01 C 175.85 51.75 175.79 53.22 175.76 53.96 C 172.69 54.98 169.31 55.94 166.15 54.67 C 159.51 52.41 159.60 41.53 165.88 38.83 M 163.69 44.93 C 166.95 45.03 170.22 45.03 173.48 44.97 C 173.15 42.69 171.68 40.19 169.02 40.46 C 166.19 40.16 164.63 42.69 163.69 44.93 Z" />
<path fill="#ffffff" opacity="1.00" d=" M 183.91 38.84 C 186.61 37.68 189.56 38.52 192.27 39.17 C 192.35 40.01 192.51 41.70 192.59 42.54 C 190.48 41.73 188.34 40.31 185.98 40.80 C 180.45 41.89 180.52 51.76 186.10 52.72 C 188.40 53.08 190.49 51.80 192.59 51.06 C 192.59 51.75 192.60 53.13 192.60 53.82 C 189.05 55.69 184.05 56.07 181.18 52.82 C 177.85 48.68 178.62 41.01 183.91 38.84 Z" />
<path fill="#ffffff" opacity="1.00" d=" M 212.40 38.45 C 215.59 37.59 219.44 38.95 220.92 42.01 C 222.63 45.45 222.44 49.93 220.10 53.04 C 216.90 56.96 209.54 56.19 207.64 51.34 C 205.52 46.82 206.89 39.66 212.40 38.45 M 212.19 41.15 C 207.48 43.73 208.81 53.98 215.09 52.97 C 219.24 52.56 219.94 47.23 218.90 44.00 C 218.20 41.14 214.73 39.99 212.19 41.15 Z" />
<path fill="#ffffff" opacity="1.00" d=" M 249.93 39.01 C 253.75 38.01 259.34 37.18 261.75 41.15 C 262.81 45.75 262.04 50.58 262.21 55.28 C 261.05 54.84 259.87 54.49 258.66 54.23 C 256.25 55.02 253.52 56.32 251.06 54.93 C 248.09 53.50 247.14 48.95 249.65 46.67 C 252.31 44.16 256.31 44.65 259.68 44.16 C 259.20 39.02 252.89 41.02 249.54 41.59 C 249.64 40.95 249.83 39.66 249.93 39.01 M 251.01 51.01 C 252.57 54.47 257.12 52.75 259.55 51.21 C 259.52 49.61 259.49 48.01 259.47 46.42 C 256.44 46.83 250.37 46.34 251.01 51.01 Z" />
<path fill="#ffffff" opacity="1.00" d=" M 270.93 39.78 C 273.94 37.90 279.07 37.20 280.70 41.20 C 281.84 45.71 281.01 50.47 281.23 55.09 C 280.53 55.01 279.12 54.87 278.41 54.79 C 278.45 50.87 278.77 46.92 278.29 43.02 C 277.35 39.36 272.58 40.76 270.45 42.53 C 269.97 46.66 270.36 50.84 270.25 54.99 C 269.56 54.99 268.20 55.01 267.52 55.01 C 267.51 49.52 267.44 44.02 267.56 38.52 C 268.72 38.84 269.84 39.25 270.93 39.78 Z" />
<path fill="#ffffff" opacity="1.00" d=" M 226.07 38.91 C 226.73 38.84 228.03 38.68 228.68 38.60 C 228.69 39.16 228.71 40.27 228.72 40.83 C 230.95 39.51 233.38 38.46 236.04 38.71 C 236.01 39.44 235.95 40.90 235.92 41.63 C 233.49 41.44 229.95 41.31 228.84 43.94 C 228.56 47.59 228.81 51.26 228.79 54.91 C 228.10 54.94 226.71 55.00 226.01 55.03 C 226.07 49.66 225.87 44.28 226.07 38.91 Z" />
<path fill="#ffffff" opacity="1.00" d=" M 172.49 68.33 C 173.15 68.28 174.47 68.19 175.13 68.14 C 175.38 75.85 175.22 83.56 175.21 91.26 C 174.06 90.86 172.89 90.53 171.70 90.27 C 168.98 91.47 165.46 92.38 163.09 89.96 C 159.39 85.76 159.82 77.67 165.10 74.92 C 167.42 73.67 170.09 74.47 172.48 75.06 C 172.49 72.81 172.49 70.57 172.49 68.33 M 165.60 77.59 C 162.87 79.99 162.91 84.50 164.54 87.52 C 166.51 90.29 170.25 88.67 172.57 87.25 C 172.46 84.05 172.48 80.84 172.59 77.64 C 170.37 76.93 167.70 76.02 165.60 77.59 Z" />
<path fill="#ffffff" opacity="1.00" d=" M 180.82 68.17 C 181.50 68.21 182.86 68.31 183.54 68.35 C 183.51 70.88 183.48 73.41 183.43 75.94 C 186.34 74.48 190.50 73.05 193.08 75.90 C 196.36 79.85 196.11 86.87 192.03 90.20 C 188.66 92.88 184.51 90.16 180.75 90.97 C 180.79 83.37 180.66 75.77 180.82 68.17 M 183.39 78.62 C 183.50 81.84 183.52 85.06 183.53 88.28 C 186.08 88.96 189.45 89.78 191.32 87.30 C 193.04 84.51 192.99 80.57 191.21 77.83 C 188.98 75.56 185.59 77.14 183.39 78.62 Z" />
<path fill="#ffffff" opacity="1.00" d=" M 233.08 68.15 C 233.74 68.19 235.08 68.26 235.75 68.29 C 235.77 73.07 235.68 77.85 235.83 82.62 C 239.65 80.13 241.60 73.97 246.91 74.70 C 244.81 77.32 242.17 79.42 240.02 81.98 C 241.70 85.49 245.29 87.92 247.75 90.98 C 246.83 90.99 244.99 90.99 244.07 91.00 C 241.81 88.62 239.59 86.21 237.28 83.89 C 236.88 84.39 236.10 85.38 235.70 85.88 C 235.73 87.55 235.77 89.23 235.81 90.90 C 235.11 90.94 233.71 91.00 233.01 91.04 C 233.04 83.41 232.92 75.78 233.08 68.15 Z" />
<path fill="#ffffff" opacity="1.00" d=" M 110.05 69.21 C 114.62 69.27 119.19 69.25 123.76 69.26 C 123.76 69.88 123.75 71.12 123.74 71.75 C 120.16 71.75 116.58 71.75 113.00 71.75 C 112.99 73.83 112.99 75.92 112.99 78.00 C 116.07 78.01 119.15 78.01 122.23 78.00 C 122.23 78.62 122.24 79.87 122.24 80.49 C 119.19 80.52 116.15 80.50 113.11 80.43 C 112.97 83.95 112.95 87.47 113.00 91.00 C 112.25 91.00 110.76 91.00 110.01 91.00 C 110.03 83.74 109.95 76.48 110.05 69.21 Z" />
<path fill="#ffffff" opacity="1.00" d=" M 129.80 74.77 C 132.62 73.75 136.44 74.00 138.34 76.60 C 139.74 78.39 139.64 80.77 139.96 82.90 C 135.81 83.04 131.67 82.98 127.52 83.02 C 128.02 85.02 128.55 87.43 130.75 88.22 C 133.70 89.57 136.80 88.09 139.60 87.08 C 139.60 87.77 139.59 89.14 139.59 89.83 C 135.84 91.46 131.07 92.13 127.65 89.43 C 123.32 85.53 124.21 77.07 129.80 74.77 M 127.49 80.95 C 130.75 81.03 134.01 81.03 137.27 80.97 C 136.97 78.38 134.93 75.86 132.06 76.51 C 129.52 76.49 128.35 78.97 127.49 80.95 Z" />
<path fill="#ffffff" opacity="1.00" d=" M 147.73 74.80 C 150.56 73.74 154.42 73.98 156.34 76.60 C 157.76 78.39 157.64 80.79 157.93 82.93 C 153.80 83.03 149.67 82.98 145.54 83.01 C 146.04 84.81 146.33 86.97 148.18 87.93 C 151.20 89.71 154.65 88.19 157.60 87.09 C 157.60 87.78 157.59 89.15 157.58 89.84 C 153.81 91.47 148.99 92.13 145.57 89.37 C 141.36 85.45 142.22 77.14 147.73 74.80 M 145.49 80.95 C 148.74 81.03 152.00 81.03 155.26 80.98 C 154.97 78.39 152.95 75.88 150.10 76.50 C 147.54 76.49 146.34 78.95 145.49 80.95 Z" />
<path fill="#ffffff" opacity="1.00" d=" M 199.52 77.57 C 198.83 74.08 202.63 74.43 204.93 74.23 C 207.66 74.08 211.30 74.88 212.02 77.97 C 212.54 82.38 212.15 86.84 212.22 91.28 C 211.05 90.84 209.87 90.49 208.66 90.23 C 206.26 91.01 203.57 92.31 201.12 90.96 C 198.10 89.56 197.12 84.97 199.65 82.67 C 202.31 80.14 206.33 80.66 209.71 80.16 C 209.15 75.02 202.89 77.04 199.52 77.57 M 201.00 86.94 C 202.46 90.49 207.14 88.77 209.55 87.18 C 209.52 85.60 209.50 84.02 209.48 82.44 C 206.47 82.83 200.44 82.32 201.00 86.94 Z" />
<path fill="#ffffff" opacity="1.00" d=" M 221.00 90.72 C 214.08 88.21 214.72 76.00 222.07 74.48 C 225.00 73.92 230.60 74.13 229.64 78.55 C 227.51 77.76 225.38 76.31 223.00 76.80 C 217.47 77.85 217.50 87.71 223.05 88.71 C 225.37 89.09 227.49 87.80 229.60 87.06 C 229.59 87.76 229.57 89.17 229.56 89.88 C 226.88 91.02 223.84 91.90 221.00 90.72 Z" />
<path fill="#ffffff" opacity="1.00" d=" M 128.88 104.06 C 129.56 104.18 130.91 104.41 131.59 104.53 C 131.38 112.02 131.57 119.51 131.48 127.01 C 130.80 127.00 129.44 127.00 128.75 126.99 C 128.82 119.35 128.60 111.70 128.88 104.06 Z" />
<path fill="#ffffff" opacity="1.00" d=" M 110.05 105.22 C 114.80 105.29 119.56 105.18 124.31 105.33 C 124.31 105.92 124.30 107.09 124.29 107.67 C 120.52 107.77 116.75 107.77 112.98 107.74 C 113.00 109.76 113.02 111.77 113.05 113.79 C 116.82 113.74 120.60 113.73 124.38 113.78 C 124.31 114.37 124.15 115.56 124.08 116.15 C 120.41 116.39 116.73 116.21 113.06 116.20 C 112.91 119.00 113.00 121.81 113.15 124.61 C 116.80 124.51 120.45 124.32 124.09 124.63 C 124.16 125.22 124.30 126.40 124.36 126.99 C 119.58 127.00 114.79 126.99 110.00 127.00 C 110.03 119.73 109.96 112.47 110.05 105.22 Z" />
<path fill="#ffffff" opacity="1.00" d=" M 232.09 105.13 C 233.24 105.23 234.39 105.33 235.54 105.43 C 235.33 106.23 235.17 107.04 235.04 107.86 C 234.27 107.92 232.74 108.04 231.97 108.10 C 232.00 107.36 232.06 105.88 232.09 105.13 Z" />
<path fill="#ffffff" opacity="1.00" d=" M 170.37 106.21 C 171.08 106.14 172.51 105.99 173.23 105.92 C 173.24 107.53 173.25 109.15 173.27 110.76 C 175.17 110.75 177.08 110.75 178.98 110.75 C 178.99 111.30 179.00 112.41 179.01 112.97 C 177.08 113.00 175.15 113.02 173.22 113.06 C 173.30 116.35 173.05 119.66 173.42 122.94 C 174.10 125.59 177.29 124.48 179.24 124.50 C 179.75 127.76 176.17 127.38 174.02 127.11 C 172.00 126.85 170.69 124.88 170.61 122.96 C 170.33 119.82 170.52 116.66 170.58 113.51 C 169.97 113.13 168.76 112.37 168.15 111.99 C 168.76 111.53 169.98 110.62 170.59 110.16 C 170.52 108.84 170.44 107.52 170.37 106.21 Z" />
<path fill="#ffffff" opacity="1.00" d=" M 140.06 111.00 C 142.63 109.77 145.98 109.92 148.28 111.68 C 150.38 113.49 150.46 116.44 150.61 119.00 C 146.53 119.01 142.45 118.99 138.37 118.98 C 138.79 120.80 139.05 123.06 140.98 123.94 C 143.96 125.70 147.40 124.28 150.25 122.98 C 150.25 123.73 150.25 125.25 150.25 126.01 C 147.06 127.01 143.53 127.97 140.30 126.54 C 134.11 124.07 134.19 113.84 140.06 111.00 M 138.30 116.97 C 141.57 117.06 144.85 117.03 148.12 116.86 C 147.45 114.92 146.49 112.45 144.01 112.49 C 141.05 111.93 139.03 114.42 138.30 116.97 Z" />
<path fill="#ffffff" opacity="1.00" d=" M 158.47 110.72 C 161.17 109.67 164.02 110.55 166.65 111.35 C 166.72 112.46 166.79 113.57 166.86 114.68 C 164.33 113.36 161.18 111.69 158.45 113.50 C 155.45 115.90 155.38 121.27 158.22 123.83 C 160.91 125.83 164.20 124.16 166.85 122.98 C 166.83 123.72 166.79 125.20 166.77 125.95 C 163.51 127.36 159.48 128.04 156.43 125.76 C 151.78 122.00 152.55 112.84 158.47 110.72 Z" />
<path fill="#ffffff" opacity="1.00" d=" M 182.33 110.72 C 182.92 110.69 184.09 110.64 184.68 110.61 C 184.80 111.19 185.04 112.35 185.16 112.93 C 187.20 111.55 189.48 110.23 192.05 110.79 C 192.15 111.47 192.34 112.81 192.44 113.48 C 189.96 113.43 187.28 113.46 185.28 115.17 C 184.63 119.08 185.14 123.08 184.99 127.03 C 184.30 127.00 182.91 126.95 182.21 126.92 C 182.31 121.52 182.17 116.12 182.33 110.72 Z" />
<path fill="#ffffff" opacity="1.00" d=" M 199.31 110.47 C 203.32 109.25 207.96 111.88 208.70 116.07 C 210.32 121.16 207.10 128.15 201.04 127.54 C 192.10 127.56 191.04 112.48 199.31 110.47 M 199.15 113.16 C 194.52 115.77 195.80 125.88 202.02 124.97 C 206.23 124.63 206.96 119.24 205.89 115.98 C 205.18 113.11 201.69 111.99 199.15 113.16 Z" />
<path fill="#ffffff" opacity="1.00" d=" M 213.35 110.48 C 214.51 110.67 215.72 110.84 216.48 111.88 C 219.56 109.94 224.89 109.11 226.50 113.31 C 227.54 117.78 226.78 122.46 226.99 127.01 C 226.30 127.00 224.92 126.97 224.23 126.96 C 224.16 122.98 224.52 118.97 224.03 115.01 C 223.20 111.34 217.64 112.60 216.11 114.98 C 215.80 118.99 216.08 123.02 215.99 127.04 C 215.29 127.00 213.90 126.93 213.20 126.89 C 213.33 121.42 213.14 115.95 213.35 110.48 Z" />
<path fill="#ffffff" opacity="1.00" d=" M 232.34 110.63 C 233.22 110.70 234.11 110.77 235.00 110.84 C 234.99 116.24 235.00 121.64 234.99 127.04 C 234.29 127.00 232.90 126.94 232.21 126.91 C 232.32 121.48 232.15 116.05 232.34 110.63 Z" />
<path fill="#ffffff" opacity="1.00" d=" M 243.43 126.50 C 237.11 123.48 237.94 112.01 245.04 110.48 C 248.04 109.93 253.54 110.11 252.66 114.56 C 250.50 113.76 248.33 112.28 245.92 112.81 C 240.43 113.98 240.54 123.82 246.14 124.73 C 248.43 125.07 250.49 123.80 252.56 123.04 C 252.57 123.73 252.60 125.12 252.61 125.81 C 249.78 127.18 246.40 127.93 243.43 126.50 Z" />
<path fill="#ffffff" opacity="1.00" d=" M 257.35 111.31 C 260.35 109.52 263.91 110.40 267.08 111.13 C 267.13 111.89 267.23 113.41 267.27 114.17 C 264.29 112.97 259.17 110.74 257.53 114.88 C 259.17 118.72 264.89 116.52 267.26 119.73 C 268.97 121.89 267.70 125.20 265.38 126.33 C 262.10 128.02 258.34 127.13 255.02 126.05 C 255.01 125.25 254.98 123.66 254.97 122.87 C 257.75 124.33 261.21 126.04 264.28 124.33 C 265.57 123.73 265.79 121.10 264.14 120.79 C 261.66 119.83 258.82 119.87 256.53 118.43 C 254.08 116.68 254.71 112.54 257.35 111.31 Z" />
<path fill="#ffffff" opacity="1.00" d=" M 286.65 224.00 C 288.45 223.98 290.25 224.00 292.05 224.00 C 294.29 225.38 295.11 228.35 293.68 230.63 C 292.00 232.73 289.04 232.22 286.68 232.39 C 286.64 229.59 286.65 226.79 286.65 224.00 Z" />
<path fill="#ffffff" opacity="1.00" d=" M 323.24 230.33 C 324.42 228.37 326.87 229.16 328.75 229.03 C 329.47 229.77 330.19 230.50 330.92 231.24 C 331.39 234.22 332.09 238.28 329.10 240.21 C 326.52 242.28 322.48 240.20 322.07 237.08 C 321.96 234.82 321.40 232.08 323.24 230.33 Z" />
<path fill="#ffffff" opacity="1.00" d=" M 352.47 231.38 C 353.56 228.77 356.35 228.81 358.75 229.02 C 359.46 229.76 360.18 230.50 360.91 231.23 C 361.31 234.03 362.07 237.64 359.66 239.77 C 358.33 241.14 356.15 241.37 354.49 240.51 C 351.40 238.70 351.46 234.32 352.47 231.38 Z" />
<path fill="#ffffff" opacity="1.00" d=" M 371.13 239.81 C 369.44 236.24 369.49 231.59 372.83 229.00 C 374.73 229.30 377.52 228.25 378.86 229.98 C 379.13 233.01 378.94 236.06 379.00 239.10 C 376.65 240.67 373.59 241.88 371.13 239.81 Z" />
<path fill="#ffffff" opacity="1.00" d=" M 400.85 240.90 C 395.86 239.38 395.88 231.75 399.78 228.94 C 401.51 229.23 403.73 228.45 405.03 229.97 C 408.41 233.46 406.69 241.96 400.85 240.90 Z" />
<path fill="#ffffff" opacity="1.00" d=" M 416.25 231.07 C 417.53 228.43 421.28 228.50 423.54 229.48 C 424.62 232.50 423.76 236.09 424.03 239.32 C 421.89 240.33 419.15 242.07 417.02 240.12 C 414.85 237.73 414.86 233.88 416.25 231.07 Z" />
<path fill="#ffffff" opacity="1.00" d=" M 433.80 232.95 C 434.76 231.20 435.67 228.74 438.06 228.72 C 440.82 227.97 443.35 230.19 443.23 232.98 C 440.08 233.00 436.94 233.02 433.80 232.95 Z" />
<path fill="#ffffff" opacity="1.00" d=" M 558.57 303.29 C 559.13 300.26 562.67 297.77 565.57 299.51 C 567.06 300.20 567.27 301.93 567.85 303.30 C 564.75 303.37 561.66 303.38 558.57 303.29 Z" />
<path fill="#ffffff" opacity="1.00" d=" M 526.31 306.09 C 528.65 305.59 531.01 305.23 533.39 304.95 C 533.26 306.55 533.60 308.25 533.00 309.79 C 530.76 311.39 526.86 312.37 525.06 309.66 C 524.64 308.27 525.64 307.17 526.31 306.09 Z" />
<path fill="#ffffff" opacity="1.00" d=" M 646.80 545.97 C 646.98 543.07 652.05 543.25 652.02 546.07 C 652.48 548.04 651.19 549.53 649.78 550.69 C 648.28 549.61 645.85 548.18 646.80 545.97 Z" />
<path fill="#ffffff" opacity="1.00" d=" M 568.43 553.96 C 569.17 551.90 570.40 549.56 572.97 549.66 C 575.76 549.05 577.30 551.62 578.04 553.86 C 574.84 554.02 571.63 554.02 568.43 553.96 Z" />
<path fill="#ffffff" opacity="1.00" d=" M 606.10 549.97 C 609.27 548.92 613.00 550.26 613.17 553.98 C 610.02 554.00 606.86 554.01 603.71 553.96 C 604.22 552.47 605.13 551.19 606.10 549.97 Z" />
<path fill="#ffffff" opacity="1.00" d=" M 705.74 552.06 C 706.90 549.69 709.96 550.07 712.17 549.91 C 714.77 552.36 714.92 556.52 713.46 559.61 C 711.81 562.36 708.21 561.74 705.64 560.89 C 705.67 557.94 705.51 555.00 705.74 552.06 Z" />
<path fill="#ffffff" opacity="1.00" d=" M 645.99 559.93 C 645.56 557.63 645.33 553.84 647.99 553.00 C 650.71 554.73 652.81 557.41 655.21 559.60 C 652.65 562.22 648.56 562.84 645.99 559.93 Z" />
<path fill="#ffffff" opacity="1.00" d=" M 503.22 558.95 C 504.30 555.31 508.78 556.05 511.69 555.63 C 511.70 557.03 511.67 558.43 511.59 559.84 C 509.51 562.34 503.51 563.29 503.22 558.95 Z" />
<path fill="#ffffff" opacity="1.00" d=" M 93.25 568.18 C 95.53 566.69 99.15 565.07 101.15 567.85 C 102.90 571.12 102.53 575.94 99.14 578.09 C 97.15 578.04 95.14 577.97 93.27 577.24 C 93.35 574.22 93.36 571.19 93.25 568.18 Z" />
<path fill="#ffffff" opacity="1.00" d=" M 118.81 570.26 C 119.82 568.57 120.74 566.34 122.98 566.09 C 125.58 565.33 128.26 567.67 128.19 570.31 C 125.06 570.40 121.94 570.35 118.81 570.26 Z" />
<path fill="#ffffff" opacity="1.00" d=" M 243.73 570.29 C 244.45 567.99 246.34 565.65 249.02 566.00 C 251.36 565.98 252.63 568.33 253.21 570.29 C 250.05 570.37 246.89 570.37 243.73 570.29 Z" />
<path fill="#ffffff" opacity="1.00" d=" M 45.11 574.26 C 47.09 572.06 50.37 572.47 53.02 571.97 C 53.02 573.57 53.01 575.19 53.00 576.81 C 50.86 577.71 48.45 579.12 46.14 577.90 C 44.50 577.56 44.99 575.43 45.11 574.26 Z" />
<path fill="#ffffff" opacity="1.00" d=" M 211.33 573.48 C 213.59 572.26 216.23 572.31 218.71 571.98 C 218.69 573.54 218.68 575.11 218.66 576.68 C 216.37 578.05 213.75 578.71 211.11 578.01 C 210.28 576.57 209.96 574.71 211.33 573.48 Z" />
<path fill="#ffffff" opacity="1.00" d=" M 414.01 671.95 C 416.44 672.18 419.69 671.16 421.24 673.69 C 422.97 675.61 421.73 678.48 419.82 679.78 C 417.95 680.44 415.95 680.31 414.01 680.42 C 413.99 677.59 414.00 674.77 414.01 671.95 Z" />
<path fill="#ffffff" opacity="1.00" d=" M 571.80 680.95 C 572.76 679.20 573.65 676.75 576.03 676.72 C 578.80 675.93 581.34 678.19 581.23 680.98 C 578.08 681.00 574.94 681.02 571.80 680.95 Z" />
<path fill="#ffffff" opacity="1.00" d=" M 516.00 687.06 C 515.50 682.56 521.33 682.88 524.36 682.65 C 524.37 684.06 524.34 685.47 524.26 686.89 C 522.20 689.08 517.80 690.14 516.00 687.06 Z" />
</g>
<g id="#373b42ff">
<path fill="#373b42" opacity="1.00" d=" M 102.35 26.03 C 102.06 24.49 103.86 24.15 104.98 24.32 C 176.97 24.38 248.97 24.32 320.96 24.35 C 322.54 24.03 322.83 25.91 322.68 27.03 C 322.58 63.93 322.76 100.85 322.59 137.75 C 322.37 137.96 321.92 138.38 321.70 138.59 C 284.70 138.71 247.69 138.69 210.68 138.60 C 212.47 142.89 216.26 146.28 217.22 150.87 C 215.30 150.98 213.38 151.07 211.46 151.15 C 211.50 173.11 211.00 195.06 211.00 217.02 C 210.98 234.04 211.08 251.06 210.79 268.07 C 210.69 272.13 210.98 276.22 210.26 280.24 C 226.16 266.17 242.49 252.58 258.50 238.62 C 259.66 237.76 260.62 236.33 262.24 236.37 C 268.76 243.83 275.20 251.36 281.60 258.93 L 281.58 260.12 C 263.51 275.95 245.02 291.31 227.00 307.21 C 226.66 307.51 225.96 308.09 225.61 308.38 C 207.50 323.68 189.50 339.13 171.61 354.70 C 171.05 354.67 169.93 354.60 169.37 354.57 C 163.20 346.85 156.47 339.60 150.23 331.94 C 153.34 328.46 157.22 325.81 160.63 322.65 C 177.00 308.77 193.07 294.54 209.58 280.85 C 208.65 279.39 208.14 277.74 208.35 276.02 C 208.58 258.01 208.69 240.00 208.88 221.99 C 209.17 198.33 208.80 174.68 209.21 151.02 C 207.05 150.99 204.89 150.94 202.73 150.83 C 204.91 146.52 208.03 142.79 210.39 138.59 C 174.96 138.74 139.52 138.62 104.08 138.65 C 102.55 138.93 102.11 137.23 102.32 136.07 C 102.35 111.95 102.37 87.82 102.32 63.70 C 78.94 63.39 55.56 63.52 32.18 63.14 C 32.07 215.88 31.95 368.61 32.00 521.34 C 94.33 521.35 156.66 521.34 218.99 521.35 C 218.99 519.46 218.99 517.59 219.01 515.72 C 223.13 516.93 226.33 520.10 230.03 522.20 C 230.02 522.59 230.00 523.36 229.99 523.75 C 226.31 525.50 223.09 528.51 219.01 529.23 C 218.97 527.34 218.94 525.46 218.89 523.58 C 156.64 523.74 94.40 523.63 32.16 523.64 C 29.99 524.01 29.09 521.70 29.34 519.94 C 29.50 376.64 29.63 233.34 29.76 90.03 C 30.01 80.38 29.46 70.70 30.08 61.06 C 54.16 60.77 78.23 61.27 102.31 61.31 C 102.40 49.55 102.30 37.79 102.35 26.03 M 103.97 25.98 C 103.97 63.00 103.81 100.03 104.01 137.05 C 176.34 137.08 248.67 137.12 320.99 137.03 C 321.15 100.01 321.11 62.99 321.00 25.97 C 248.66 25.89 176.31 25.89 103.97 25.98 M 207.45 284.18 C 213.38 291.64 219.89 298.63 225.92 306.01 C 244.08 290.67 261.99 275.03 280.11 259.65 C 274.39 252.06 267.72 245.24 261.79 237.81 C 243.57 253.13 225.74 268.93 207.45 284.18 M 152.00 331.95 C 158.12 339.31 164.49 346.45 170.63 353.80 C 188.44 338.06 206.66 322.79 224.65 307.26 C 218.49 299.95 212.16 292.78 206.02 285.45 C 188.10 301.05 169.92 316.35 152.00 331.95 Z" />
<path fill="#373b42" opacity="1.00" d=" M 301.11 220.17 C 301.83 220.11 303.27 220.01 304.00 219.95 C 304.00 222.66 304.01 225.37 303.99 228.09 C 306.36 226.97 309.05 225.10 311.71 226.45 C 313.57 227.06 314.94 228.95 314.99 230.90 C 315.07 234.94 314.96 238.97 315.00 243.01 C 314.25 243.01 312.76 243.00 312.02 243.00 C 311.83 238.77 312.44 234.45 311.70 230.28 C 309.91 227.53 306.18 229.39 303.99 230.75 C 304.02 234.84 303.99 238.92 304.00 243.01 C 303.26 243.01 301.77 243.00 301.02 243.00 C 301.07 235.39 300.92 227.77 301.11 220.17 Z" />
<path fill="#373b42" opacity="1.00" d=" M 379.00 219.96 C 379.72 220.01 381.16 220.10 381.88 220.15 C 382.09 227.80 381.93 235.44 381.98 243.09 C 380.48 243.40 379.36 243.03 378.60 241.99 C 376.00 243.58 372.56 244.51 369.93 242.43 C 365.32 238.19 366.15 228.79 372.40 226.45 C 374.56 225.41 376.86 226.45 379.00 227.02 C 378.99 224.66 379.00 222.31 379.00 219.96 M 371.13 239.81 C 373.59 241.88 376.65 240.67 379.00 239.10 C 378.94 236.06 379.13 233.01 378.86 229.98 C 377.52 228.25 374.73 229.30 372.83 229.00 C 369.49 231.59 369.44 236.24 371.13 239.81 Z" />
<path fill="#373b42" opacity="1.00" d=" M 424.10 220.18 C 424.82 220.12 426.27 220.01 426.99 219.95 C 427.01 227.69 427.00 235.43 427.00 243.18 C 425.73 243.17 424.56 242.86 423.48 242.24 C 420.85 243.66 417.37 244.47 414.94 242.22 C 410.77 237.88 411.47 228.94 417.44 226.51 C 419.58 225.46 421.89 226.33 424.01 226.96 C 424.01 224.70 424.03 222.44 424.10 220.18 M 416.25 231.07 C 414.86 233.88 414.85 237.73 417.02 240.12 C 419.15 242.07 421.89 240.33 424.03 239.32 C 423.76 236.09 424.62 232.50 423.54 229.48 C 421.28 228.50 417.53 228.43 416.25 231.07 Z" />
<path fill="#373b42" opacity="1.00" d=" M 283.46 221.03 C 287.37 221.14 291.76 220.30 295.20 222.67 C 299.06 225.35 298.18 232.10 294.06 234.12 C 291.84 235.47 289.15 234.90 286.69 235.02 C 286.66 237.68 286.63 240.34 286.65 243.00 C 285.82 243.00 284.18 243.00 283.35 243.00 C 283.40 235.68 283.22 228.35 283.46 221.03 M 286.65 224.00 C 286.65 226.79 286.64 229.59 286.68 232.39 C 289.04 232.22 292.00 232.73 293.68 230.63 C 295.11 228.35 294.29 225.38 292.05 224.00 C 290.25 224.00 288.45 223.98 286.65 224.00 Z" />
<path fill="#373b42" opacity="1.00" d=" M 387.01 221.01 C 387.83 221.01 389.46 221.02 390.28 221.02 C 390.27 222.03 390.27 223.04 390.26 224.06 C 389.44 224.04 387.80 224.01 386.98 223.99 C 386.99 223.25 387.00 221.76 387.01 221.01 Z" />
<path fill="#373b42" opacity="1.00" d=" M 338.38 222.00 C 339.11 222.00 340.59 222.00 341.33 222.00 C 341.32 223.54 341.32 225.09 341.33 226.65 C 343.22 226.66 345.11 226.67 347.00 226.68 C 347.00 227.26 347.00 228.42 347.01 229.00 C 345.10 229.01 343.19 229.03 341.29 229.07 C 341.43 232.35 341.04 235.68 341.57 238.93 C 342.37 241.33 345.14 240.61 347.02 240.22 C 347.02 240.92 347.01 242.33 347.00 243.04 C 344.50 243.13 341.17 244.07 339.44 241.66 C 337.57 238.41 338.62 234.50 338.37 230.96 C 338.77 229.41 337.12 228.83 336.27 227.95 C 336.77 227.48 337.79 226.54 338.30 226.08 C 338.33 224.71 338.35 223.35 338.38 222.00 Z" />
<path fill="#373b42" opacity="1.00" d=" M 324.32 226.39 C 328.74 224.74 334.03 228.26 334.21 232.99 C 335.43 238.14 331.86 244.42 326.01 243.68 C 317.22 243.34 316.27 228.65 324.32 226.39 M 323.24 230.33 C 321.40 232.08 321.96 234.82 322.07 237.08 C 322.48 240.20 326.52 242.28 329.10 240.21 C 332.09 238.28 331.39 234.22 330.92 231.24 C 330.19 230.50 329.47 229.77 328.75 229.03 C 326.87 229.16 324.42 228.37 323.24 230.33 Z" />
<path fill="#373b42" opacity="1.00" d=" M 354.35 226.39 C 358.09 225.03 362.70 227.34 363.84 231.17 C 364.65 234.29 364.61 237.86 362.82 240.65 C 359.77 245.18 351.62 244.53 349.70 239.25 C 347.80 234.75 348.96 227.80 354.35 226.39 M 352.47 231.38 C 351.46 234.32 351.40 238.70 354.49 240.51 C 356.15 241.37 358.33 241.14 359.66 239.77 C 362.07 237.64 361.31 234.03 360.91 231.23 C 360.18 230.50 359.46 229.76 358.75 229.02 C 356.35 228.81 353.56 228.77 352.47 231.38 Z" />
<path fill="#373b42" opacity="1.00" d=" M 386.99 226.78 C 388.00 226.74 389.02 226.72 390.04 226.71 C 389.97 232.14 390.01 237.57 390.00 243.01 C 389.25 243.01 387.76 243.00 387.02 243.00 C 387.01 237.59 387.04 232.18 386.99 226.78 Z" />
<path fill="#373b42" opacity="1.00" d=" M 399.35 226.47 C 402.80 225.07 407.15 226.86 408.67 230.26 C 410.21 233.62 410.00 237.79 407.89 240.86 C 405.13 244.54 398.79 244.66 396.00 240.96 C 392.50 236.55 393.58 228.37 399.35 226.47 M 400.85 240.90 C 406.69 241.96 408.41 233.46 405.03 229.97 C 403.73 228.45 401.51 229.23 399.78 228.94 C 395.88 231.75 395.86 239.38 400.85 240.90 Z" />
<path fill="#373b42" opacity="1.00" d=" M 433.96 228.03 C 437.08 224.88 443.38 225.41 445.32 229.61 C 446.32 231.23 445.93 233.19 446.06 235.00 C 441.98 235.01 437.90 234.97 433.83 235.02 C 434.34 237.09 435.12 239.68 437.50 240.24 C 440.41 241.42 443.33 239.84 446.00 238.80 C 446.01 239.58 446.01 241.14 446.01 241.93 C 442.14 243.55 437.13 244.26 433.65 241.41 C 430.09 237.91 430.03 231.28 433.96 228.03 M 433.80 232.95 C 436.94 233.02 440.08 233.00 443.23 232.98 C 443.35 230.19 440.82 227.97 438.06 228.72 C 435.67 228.74 434.76 231.20 433.80 232.95 Z" />
<path fill="#373b42" opacity="1.00" d=" M 619.36 281.15 C 620.61 280.24 621.74 281.64 622.78 282.20 C 629.21 286.88 635.88 291.23 642.28 295.96 C 618.64 329.43 595.52 363.27 571.90 396.76 C 568.31 394.62 565.01 392.06 561.52 389.78 C 561.14 389.52 560.38 389.00 560.00 388.74 C 556.54 386.41 553.25 383.82 549.71 381.60 C 556.77 370.47 564.72 359.93 572.08 348.99 C 587.88 326.40 603.60 303.76 619.36 281.15 M 620.18 281.95 C 597.29 315.03 574.21 347.99 551.26 381.03 C 557.95 385.90 564.79 390.58 571.62 395.26 C 592.96 364.44 614.48 333.76 635.82 302.95 C 637.36 300.68 639.31 298.63 640.36 296.06 C 633.78 291.17 626.92 286.64 620.18 281.95 Z" />
<path fill="#373b42" opacity="1.00" d=" M 507.00 291.68 C 507.75 291.68 509.25 291.67 510.00 291.67 C 510.01 298.11 509.99 304.55 510.00 311.00 C 513.69 310.99 517.38 310.99 521.08 311.01 C 521.00 311.67 520.85 312.99 520.77 313.65 C 516.18 313.65 511.58 313.63 507.00 313.69 C 506.99 306.35 507.00 299.01 507.00 291.68 Z" />
<path fill="#373b42" opacity="1.00" d=" M 523.81 297.14 C 527.71 296.90 533.16 295.38 535.73 299.32 C 536.98 304.00 536.06 308.95 536.31 313.74 C 534.89 313.92 533.80 313.47 533.04 312.40 C 530.30 314.19 526.05 315.17 523.60 312.43 C 521.48 310.41 521.46 306.69 523.79 304.84 C 526.52 302.59 530.29 303.07 533.56 302.49 C 533.30 301.68 533.05 300.88 532.81 300.08 C 529.82 298.88 526.66 299.56 523.65 300.24 C 523.69 299.47 523.77 297.92 523.81 297.14 M 526.31 306.09 C 525.64 307.17 524.64 308.27 525.06 309.66 C 526.86 312.37 530.76 311.39 533.00 309.79 C 533.60 308.25 533.26 306.55 533.39 304.95 C 531.01 305.23 528.65 305.59 526.31 306.09 Z" />
<path fill="#373b42" opacity="1.00" d=" M 540.25 302.98 C 539.12 299.58 542.83 296.59 546.03 296.70 C 548.91 296.58 553.75 296.70 552.89 300.92 C 549.92 300.04 546.01 297.46 543.34 300.35 C 541.93 302.08 544.42 303.29 545.84 303.54 C 548.53 304.26 553.06 304.30 553.28 308.03 C 553.87 310.79 551.45 312.99 548.98 313.59 C 546.07 314.57 542.98 313.68 540.26 312.56 C 540.11 311.44 540.00 310.31 539.92 309.18 C 542.70 310.51 545.83 312.15 548.97 310.96 C 550.82 310.73 550.86 307.40 548.94 307.22 C 545.95 306.19 541.54 306.56 540.25 302.98 Z" />
<path fill="#373b42" opacity="1.00" d=" M 561.00 297.00 C 563.74 296.33 567.34 296.44 569.14 298.96 C 570.63 300.83 570.57 303.33 570.71 305.60 C 566.62 305.68 562.53 305.60 558.44 305.74 C 558.77 307.91 559.85 310.00 561.99 310.87 C 564.92 311.58 567.81 310.51 570.46 309.33 C 570.38 310.18 570.21 311.87 570.13 312.72 C 567.10 313.55 563.81 314.71 560.76 313.32 C 553.59 311.15 554.01 299.15 561.00 297.00 M 558.57 303.29 C 561.66 303.38 564.75 303.37 567.85 303.30 C 567.27 301.93 567.06 300.20 565.57 299.51 C 562.67 297.77 559.13 300.26 558.57 303.29 Z" />
<path fill="#373b42" opacity="1.00" d=" M 575.01 296.84 C 576.56 296.91 578.16 297.05 578.22 298.99 C 580.25 297.66 582.53 296.81 585.00 296.95 C 585.00 298.04 585.00 299.13 585.02 300.22 C 582.50 299.64 580.14 300.46 577.99 301.74 C 577.98 305.70 578.05 309.67 577.83 313.63 C 577.13 313.67 575.74 313.74 575.05 313.78 C 574.90 308.13 575.03 302.49 575.01 296.84 Z" />
<path fill="#373b42" opacity="1.00" d=" M 224.34 496.76 C 226.78 497.23 228.04 499.66 229.77 501.21 C 255.20 527.90 290.30 543.33 325.93 550.83 C 366.04 559.12 407.21 560.27 448.04 559.95 C 454.34 560.20 460.65 559.93 466.96 560.14 C 467.04 563.71 467.05 567.29 466.96 570.87 C 462.58 570.99 458.21 570.90 453.85 570.98 C 450.86 579.41 448.04 587.90 444.52 596.13 L 444.40 596.09 C 440.66 587.97 437.25 579.67 434.56 571.14 C 431.74 570.64 428.88 570.57 426.03 570.65 C 375.52 569.87 323.74 566.11 276.62 546.39 C 254.64 537.49 234.23 524.89 216.08 509.66 C 218.50 505.15 221.58 501.05 224.34 496.76 M 217.86 509.10 C 219.84 511.95 223.23 513.64 225.86 515.93 C 259.43 541.85 300.44 556.67 342.07 563.13 C 371.48 567.87 401.31 569.17 431.06 569.31 C 432.70 569.49 435.14 569.12 435.67 571.22 C 438.60 578.61 441.14 586.17 444.57 593.36 C 447.30 585.49 450.18 577.66 453.01 569.82 C 457.26 569.41 461.53 569.54 465.79 569.66 C 465.79 566.89 465.79 564.12 465.81 561.36 C 446.88 561.77 427.97 560.96 409.04 561.00 C 376.02 559.63 342.73 557.20 310.73 548.40 C 291.32 543.18 272.67 535.05 255.73 524.23 C 244.59 516.71 233.84 508.26 225.17 497.92 C 222.65 501.58 219.89 505.13 217.86 509.10 Z" />
<path fill="#373b42" opacity="1.00" d=" M 558.74 540.90 C 559.41 540.96 560.76 541.07 561.44 541.13 C 561.94 548.73 561.51 556.37 561.65 564.00 C 560.90 564.00 559.42 564.00 558.67 564.00 C 558.70 556.30 558.60 548.60 558.74 540.90 Z" />
<path fill="#373b42" opacity="1.00" d=" M 483.09 544.11 C 487.11 540.73 493.26 541.10 497.69 543.46 C 497.92 544.67 498.07 545.90 498.12 547.15 C 495.25 545.69 492.18 543.68 488.80 544.48 C 480.69 546.02 480.81 560.18 488.82 561.86 C 492.20 562.65 495.20 560.49 498.02 558.97 C 497.95 560.20 497.89 561.44 497.83 562.69 C 492.51 565.53 484.45 565.71 481.14 559.82 C 478.75 554.92 478.95 548.05 483.09 544.11 Z" />
<path fill="#373b42" opacity="1.00" d=" M 550.15 542.08 C 550.90 542.07 552.41 542.05 553.16 542.04 C 553.54 542.94 553.82 543.89 553.98 544.88 C 552.64 544.96 551.30 545.03 549.96 545.09 C 550.01 544.34 550.11 542.83 550.15 542.08 Z" />
<path fill="#373b42" opacity="1.00" d=" M 643.41 546.14 C 644.08 541.44 650.72 540.33 653.91 543.11 C 655.89 544.39 655.07 546.98 655.13 548.94 C 653.89 550.02 652.55 550.99 651.23 551.95 C 652.96 553.53 654.71 555.12 656.49 556.67 C 656.59 554.64 656.67 552.61 656.74 550.58 C 657.52 550.63 659.08 550.73 659.85 550.78 C 660.44 553.47 659.19 556.04 658.40 558.55 C 660.17 560.34 661.93 562.16 663.67 564.00 C 662.78 564.00 661.00 564.00 660.11 564.00 C 658.97 563.01 657.83 562.05 656.69 561.09 C 653.69 565.00 647.06 566.17 643.74 562.06 C 640.99 558.79 642.57 553.76 646.03 551.71 C 644.58 550.22 642.82 548.40 643.41 546.14 M 646.80 545.97 C 645.85 548.18 648.28 549.61 649.78 550.69 C 651.19 549.53 652.48 548.04 652.02 546.07 C 652.05 543.25 646.98 543.07 646.80 545.97 M 645.99 559.93 C 648.56 562.84 652.65 562.22 655.21 559.60 C 652.81 557.41 650.71 554.73 647.99 553.00 C 645.33 553.84 645.56 557.63 645.99 559.93 Z" />
<path fill="#373b42" opacity="1.00" d=" M 673.10 542.13 C 679.37 541.96 685.64 541.94 691.91 542.14 C 691.91 542.82 691.89 544.19 691.89 544.88 C 689.25 544.97 686.62 544.98 684.00 544.99 C 684.00 551.33 684.00 557.66 684.00 564.00 C 683.25 564.00 681.75 564.00 681.00 564.00 C 681.00 557.66 681.00 551.33 681.00 544.99 C 678.36 544.98 675.72 544.98 673.10 544.87 C 673.10 544.18 673.10 542.81 673.10 542.13 Z" />
<path fill="#373b42" opacity="1.00" d=" M 694.14 542.10 C 695.29 542.10 696.45 542.13 697.61 542.17 C 697.66 542.86 697.74 544.24 697.78 544.93 C 696.50 544.98 695.23 545.03 693.97 545.08 C 694.01 544.33 694.09 542.84 694.14 542.10 Z" />
<path fill="#373b42" opacity="1.00" d=" M 538.67 543.00 C 539.41 543.00 540.90 543.00 541.64 543.00 C 541.64 544.52 541.65 546.06 541.66 547.60 C 543.85 548.00 548.04 546.37 547.46 550.00 C 545.52 549.99 543.59 549.99 541.67 550.00 C 541.84 553.60 541.07 557.37 542.23 560.86 C 543.71 562.23 545.74 561.35 547.51 561.30 C 548.25 565.39 543.59 564.13 541.09 564.07 C 540.39 563.32 539.68 562.57 538.98 561.84 C 538.54 557.96 538.62 554.05 538.75 550.16 C 538.27 550.12 537.30 550.02 536.82 549.97 C 536.64 548.46 537.26 547.58 538.68 547.31 C 538.67 545.87 538.66 544.43 538.67 543.00 Z" />
<path fill="#373b42" opacity="1.00" d=" M 501.87 550.81 C 500.74 547.21 504.64 547.23 507.07 546.99 C 509.86 546.94 513.66 547.76 514.35 550.97 C 515.02 555.28 514.49 559.69 514.65 564.05 C 513.03 564.51 512.02 563.96 511.62 562.41 C 508.09 566.28 500.16 564.97 500.28 558.98 C 500.75 552.90 508.01 553.93 512.16 552.45 C 511.64 551.84 510.60 550.61 510.08 550.00 C 507.31 549.89 504.53 549.99 501.87 550.81 M 503.22 558.95 C 503.51 563.29 509.51 562.34 511.59 559.84 C 511.67 558.43 511.70 557.03 511.69 555.63 C 508.78 556.05 504.30 555.31 503.22 558.95 Z" />
<path fill="#373b42" opacity="1.00" d=" M 570.72 547.60 C 572.99 546.51 575.68 546.97 577.82 548.16 C 580.37 549.86 580.59 553.21 580.77 556.00 C 576.67 556.00 572.57 555.99 568.48 556.00 C 568.87 558.01 569.39 560.56 571.74 561.11 C 574.62 562.55 577.68 560.90 580.33 559.75 C 580.33 560.56 580.33 562.19 580.33 563.01 C 576.42 564.61 571.27 565.25 567.92 562.15 C 564.03 558.02 564.98 549.61 570.72 547.60 M 568.43 553.96 C 571.63 554.02 574.84 554.02 578.04 553.86 C 577.30 551.62 575.76 549.05 572.97 549.66 C 570.40 549.56 569.17 551.90 568.43 553.96 Z" />
<path fill="#373b42" opacity="1.00" d=" M 604.05 562.88 C 598.34 558.71 600.51 547.77 607.93 547.04 C 613.14 546.11 616.62 551.26 616.14 556.00 C 612.01 556.01 607.89 555.98 603.77 556.01 C 603.92 558.32 605.10 560.81 607.58 561.34 C 609.94 562.27 612.29 561.08 614.47 560.26 C 616.19 559.26 615.51 562.07 615.82 562.88 C 612.16 564.45 607.55 565.19 604.05 562.88 M 606.10 549.97 C 605.13 551.19 604.22 552.47 603.71 553.96 C 606.86 554.01 610.02 554.00 613.17 553.98 C 613.00 550.26 609.27 548.92 606.10 549.97 Z" />
<path fill="#373b42" opacity="1.00" d=" M 620.10 547.96 C 621.00 547.76 621.90 547.55 622.81 547.34 C 622.88 547.97 623.02 549.25 623.09 549.88 C 625.09 548.31 627.54 547.18 630.16 547.73 C 630.24 548.47 630.40 549.93 630.48 550.66 C 627.80 550.48 625.04 550.73 623.00 552.63 C 623.00 556.42 623.00 560.21 623.00 564.01 C 622.25 564.00 620.77 564.00 620.02 564.00 C 620.10 558.65 619.86 553.30 620.10 547.96 Z" />
<path fill="#373b42" opacity="1.00" d=" M 706.15 548.57 C 708.75 547.11 712.11 546.19 714.66 548.30 C 718.40 551.93 718.32 558.90 714.66 562.57 C 712.23 564.94 708.59 564.37 705.60 563.71 C 705.64 565.79 705.66 567.88 705.70 569.97 C 704.94 570.00 703.43 570.04 702.68 570.06 C 702.67 562.56 702.66 555.05 702.68 547.55 C 703.88 547.70 705.04 548.04 706.15 548.57 M 705.74 552.06 C 705.51 555.00 705.67 557.94 705.64 560.89 C 708.21 561.74 711.81 562.36 713.46 559.61 C 714.92 556.52 714.77 552.36 712.17 549.91 C 709.96 550.07 706.90 549.69 705.74 552.06 Z" />
<path fill="#373b42" opacity="1.00" d=" M 519.81 548.08 L 521.58 547.17 C 521.78 547.78 522.17 549.00 522.36 549.62 C 525.00 546.91 530.13 545.68 532.60 549.24 C 534.55 553.85 533.41 559.08 533.56 563.95 C 532.84 563.99 531.39 564.06 530.67 564.10 C 530.47 559.93 531.16 555.65 530.24 551.56 C 529.06 548.54 525.11 550.37 522.92 551.19 C 522.44 555.42 522.66 559.68 522.71 563.94 C 521.95 563.97 520.44 564.05 519.68 564.09 C 519.77 558.75 519.46 553.40 519.81 548.08 Z" />
<path fill="#373b42" opacity="1.00" d=" M 550.37 547.69 C 551.11 547.69 552.59 547.69 553.32 547.69 C 553.33 553.13 553.33 558.56 553.33 564.00 C 552.58 564.00 551.09 564.00 550.35 564.00 C 550.35 558.56 550.32 553.12 550.37 547.69 Z" />
<path fill="#373b42" opacity="1.00" d=" M 582.91 547.52 C 583.66 547.59 585.17 547.74 585.93 547.82 C 587.92 551.77 589.11 556.06 590.93 560.09 C 592.79 556.09 593.75 551.67 595.88 547.81 C 596.61 547.73 598.06 547.57 598.79 547.49 C 597.06 552.68 594.88 557.71 592.82 562.78 C 592.50 564.54 590.55 563.91 589.31 564.06 C 587.31 558.49 584.82 553.11 582.91 547.52 Z" />
<path fill="#373b42" opacity="1.00" d=" M 694.45 547.80 C 695.17 547.74 696.60 547.63 697.31 547.58 C 697.34 553.05 697.32 558.52 697.33 564.00 C 696.58 564.00 695.10 564.00 694.35 564.00 C 694.42 558.60 694.19 553.19 694.45 547.80 Z" />
<path fill="#373b42" opacity="1.00" d=" M 22.19 565.96 C 20.90 560.94 26.59 557.65 30.96 558.00 C 33.31 558.36 36.04 558.40 37.97 559.93 C 38.00 560.78 38.05 562.46 38.07 563.31 C 35.00 561.34 31.47 560.62 27.85 560.96 C 25.92 562.19 24.18 564.75 26.35 566.69 C 29.85 568.51 34.45 567.59 37.46 570.45 C 40.23 573.18 38.88 578.06 35.62 579.77 C 31.83 581.88 27.06 581.23 23.11 579.89 C 21.14 579.36 22.30 576.80 21.91 575.43 C 25.34 577.69 29.68 579.31 33.74 577.73 C 35.92 576.56 36.01 574.05 34.80 572.14 C 30.44 570.75 23.71 571.42 22.19 565.96 Z" />
<path fill="#373b42" opacity="1.00" d=" M 109.02 557.75 C 109.77 557.73 111.25 557.68 112.00 557.66 C 112.01 565.33 111.98 573.00 112.01 580.67 C 111.26 580.63 109.76 580.53 109.01 580.48 C 109.03 572.91 109.02 565.33 109.02 557.75 Z" />
<path fill="#373b42" opacity="1.00" d=" M 146.61 560.62 C 150.17 557.23 155.59 557.66 159.90 559.20 C 161.79 559.62 160.74 562.00 161.07 563.31 C 158.01 561.33 154.46 560.63 150.85 560.96 C 148.91 562.21 147.18 564.73 149.35 566.69 C 152.84 568.51 157.43 567.59 160.46 570.44 C 163.24 573.19 161.87 578.09 158.59 579.79 C 154.80 581.88 150.06 581.22 146.11 579.89 C 144.14 579.38 145.30 576.80 144.90 575.43 C 148.34 577.68 152.66 579.30 156.72 577.75 C 158.92 576.57 158.99 574.09 157.82 572.15 C 154.68 571.30 151.37 571.05 148.34 569.84 C 144.84 568.30 143.92 563.32 146.61 560.62 Z" />
<path fill="#373b42" opacity="1.00" d=" M 197.80 563.73 C 197.36 558.86 202.42 556.06 206.70 557.65 C 206.81 558.34 207.04 559.71 207.16 560.40 C 204.28 559.34 200.23 560.06 200.80 563.95 C 202.51 564.01 204.23 564.07 205.94 564.16 C 205.92 564.77 205.86 566.01 205.84 566.62 C 204.22 566.63 202.61 566.65 201.00 566.66 C 200.96 571.27 200.98 575.87 200.98 580.49 C 200.24 580.53 198.74 580.63 198.00 580.68 C 197.94 576.10 198.11 571.51 197.90 566.93 C 197.35 566.73 196.24 566.31 195.68 566.11 L 196.24 564.60 C 196.63 564.38 197.41 563.95 197.80 563.73 Z" />
<path fill="#373b42" opacity="1.00" d=" M 43.00 566.98 C 43.49 566.00 43.14 563.84 44.85 564.03 C 47.53 563.49 50.26 563.74 52.97 563.94 C 54.12 565.09 55.91 566.05 55.98 567.89 C 56.10 572.18 55.95 576.49 55.99 580.79 C 54.71 580.70 53.34 580.58 52.59 579.40 C 50.07 581.28 45.85 582.11 43.51 579.52 C 41.27 577.61 41.23 573.48 43.67 571.72 C 46.32 569.52 49.96 570.26 53.09 569.48 C 52.97 568.92 52.73 567.80 52.61 567.23 C 49.61 565.52 46.20 566.99 43.00 566.98 M 45.11 574.26 C 44.99 575.43 44.50 577.56 46.14 577.90 C 48.45 579.12 50.86 577.71 53.00 576.81 C 53.01 575.19 53.02 573.57 53.02 571.97 C 50.37 572.47 47.09 572.06 45.11 574.26 Z" />
<path fill="#373b42" opacity="1.00" d=" M 61.13 564.04 C 62.58 563.98 64.31 563.66 64.25 565.69 C 66.35 563.80 69.16 563.37 71.87 563.94 C 72.37 564.46 73.37 565.50 73.87 566.03 C 76.79 563.24 83.34 562.20 84.73 567.02 C 85.39 571.53 84.85 576.18 84.99 580.74 C 84.28 580.71 82.86 580.65 82.16 580.62 C 81.83 576.41 82.23 572.19 81.90 567.99 C 80.59 565.06 76.81 566.55 74.92 568.05 C 74.23 572.20 74.89 576.51 74.60 580.72 C 73.89 580.66 72.45 580.53 71.74 580.47 C 71.28 576.19 72.38 571.72 71.09 567.58 C 69.37 564.98 66.11 567.07 64.05 568.13 C 63.95 572.35 64.11 576.57 63.94 580.80 C 63.24 580.75 61.84 580.64 61.14 580.58 C 60.94 575.07 60.96 569.55 61.13 564.04 Z" />
<path fill="#373b42" opacity="1.00" d=" M 90.52 563.72 C 91.72 564.08 92.91 564.46 94.10 564.87 C 97.19 563.32 101.84 562.83 103.77 566.39 C 106.32 570.95 105.52 578.66 99.90 580.50 C 97.76 581.69 95.41 580.51 93.27 580.02 C 93.32 582.24 93.33 584.46 93.34 586.69 C 92.62 586.64 91.18 586.55 90.46 586.50 C 90.28 578.91 90.23 571.31 90.52 563.72 M 93.25 568.18 C 93.36 571.19 93.35 574.22 93.27 577.24 C 95.14 577.97 97.15 578.04 99.14 578.09 C 102.53 575.94 102.90 571.12 101.15 567.85 C 99.15 565.07 95.53 566.69 93.25 568.18 Z" />
<path fill="#373b42" opacity="1.00" d=" M 119.01 579.17 C 114.29 575.29 115.27 566.46 121.06 564.08 C 124.04 563.31 127.99 563.34 129.86 566.21 C 131.25 568.10 131.03 570.48 131.02 572.69 C 126.95 572.64 122.88 572.60 118.81 572.71 C 119.43 574.63 120.05 576.93 122.16 577.74 C 125.24 578.69 128.32 577.54 131.09 576.21 C 130.76 577.36 131.45 579.38 129.95 579.86 C 126.44 581.32 122.19 581.50 119.01 579.17 M 118.81 570.26 C 121.94 570.35 125.06 570.40 128.19 570.31 C 128.26 567.67 125.58 565.33 122.98 566.09 C 120.74 566.34 119.82 568.57 118.81 570.26 Z" />
<path fill="#373b42" opacity="1.00" d=" M 166.01 563.96 C 166.73 564.01 168.17 564.11 168.89 564.16 C 169.12 568.37 168.75 572.59 169.15 576.79 C 171.10 579.63 174.82 578.05 177.00 576.38 C 176.98 572.23 176.99 568.09 177.01 563.95 C 177.73 564.01 179.18 564.12 179.90 564.18 C 179.99 569.71 180.11 575.24 179.81 580.77 C 178.45 580.75 176.93 580.87 176.64 579.17 C 173.59 581.93 167.75 581.99 166.19 577.57 C 165.69 573.06 166.14 568.49 166.01 563.96 Z" />
<path fill="#373b42" opacity="1.00" d=" M 185.11 564.17 C 185.83 564.11 187.27 564.01 187.99 563.95 C 187.99 564.51 188.00 565.62 188.00 566.18 C 190.18 564.87 192.52 563.81 195.12 563.86 C 195.17 564.67 195.28 566.29 195.34 567.10 C 192.66 566.62 190.13 567.45 188.00 569.05 C 187.97 572.96 188.10 576.88 187.94 580.80 C 187.24 580.74 185.83 580.62 185.12 580.57 C 184.95 575.10 184.98 569.63 185.11 564.17 Z" />
<path fill="#373b42" opacity="1.00" d=" M 209.03 564.15 C 212.94 563.88 218.18 562.44 220.92 566.19 C 222.35 570.76 221.48 575.72 221.54 580.45 L 219.76 580.85 C 219.44 580.48 218.80 579.74 218.49 579.36 C 214.76 582.25 207.70 581.71 207.28 576.02 C 207.30 569.92 214.46 569.81 218.89 569.55 C 218.57 568.71 218.25 567.89 217.94 567.07 C 215.02 565.81 211.90 566.60 208.94 567.27 C 208.97 566.49 209.01 564.93 209.03 564.15 M 211.33 573.48 C 209.96 574.71 210.28 576.57 211.11 578.01 C 213.75 578.71 216.37 578.05 218.66 576.68 C 218.68 575.11 218.69 573.54 218.71 571.98 C 216.23 572.31 213.59 572.26 211.33 573.48 Z" />
<path fill="#373b42" opacity="1.00" d=" M 230.21 564.15 C 233.13 563.19 236.25 563.78 238.99 565.00 C 239.00 565.81 239.00 567.42 239.01 568.23 C 236.81 567.43 234.57 565.85 232.15 566.45 C 227.28 567.63 227.04 575.38 231.04 577.74 C 233.82 578.77 236.59 577.36 239.09 576.24 C 239.06 577.38 238.91 578.51 238.62 579.62 C 236.08 580.77 233.11 581.57 230.43 580.43 C 223.64 578.13 223.60 566.72 230.21 564.15 Z" />
<path fill="#373b42" opacity="1.00" d=" M 243.77 579.22 C 238.11 574.69 240.96 562.99 249.00 563.66 C 253.92 563.04 256.70 568.40 255.86 572.66 C 251.84 572.65 247.82 572.62 243.81 572.67 C 243.81 575.45 246.00 578.34 248.98 578.04 C 251.41 578.36 253.60 577.08 255.80 576.30 C 256.87 580.15 252.78 580.59 250.08 580.97 C 247.86 581.12 245.62 580.40 243.77 579.22 M 243.73 570.29 C 246.89 570.37 250.05 570.37 253.21 570.29 C 252.63 568.33 251.36 565.98 249.02 566.00 C 246.34 565.65 244.45 567.99 243.73 570.29 Z" />
<path fill="#373b42" opacity="1.00" d=" M 193.60 611.74 C 241.72 611.41 289.85 611.71 337.97 611.60 C 390.69 611.60 443.42 611.61 496.15 611.60 L 496.69 611.57 C 496.56 620.29 496.79 629.01 496.59 637.73 C 496.38 637.94 495.97 638.37 495.76 638.59 C 464.41 638.77 433.05 638.57 401.70 638.69 C 401.61 663.82 401.66 688.95 401.67 714.09 C 401.60 715.27 401.49 716.46 401.34 717.65 C 369.79 717.30 338.24 717.67 306.70 717.47 C 306.35 717.28 305.65 716.90 305.30 716.71 C 304.13 715.38 304.49 713.60 304.42 712.00 C 304.60 687.49 304.37 662.98 304.53 638.47 C 267.56 638.52 230.60 638.62 193.63 638.40 C 193.39 629.51 193.38 620.62 193.60 611.74 Z" />
<path fill="#373b42" opacity="1.00" d=" M 411.00 669.03 C 414.82 669.15 419.14 668.28 422.51 670.57 C 426.15 672.95 425.93 678.92 422.54 681.43 C 420.20 683.56 416.88 682.96 414.00 683.02 C 414.00 685.67 414.00 688.33 414.00 691.00 C 413.25 691.00 411.75 691.00 411.00 691.00 C 411.00 683.68 411.00 676.35 411.00 669.03 M 414.01 671.95 C 414.00 674.77 413.99 677.59 414.01 680.42 C 415.95 680.31 417.95 680.44 419.82 679.78 C 421.73 678.48 422.97 675.61 421.24 673.69 C 419.69 671.16 416.44 672.18 414.01 671.95 Z" />
<path fill="#373b42" opacity="1.00" d=" M 428.10 669.13 C 433.59 668.92 439.10 669.06 444.60 669.02 C 444.55 669.75 444.46 671.21 444.41 671.94 C 440.25 677.54 435.50 682.69 431.42 688.37 C 435.87 688.34 440.33 688.33 444.79 688.37 C 444.86 689.02 445.00 690.34 445.07 691.00 C 439.22 691.00 433.38 691.00 427.53 690.99 C 427.64 689.53 427.76 687.98 428.86 686.89 C 432.86 681.92 436.84 676.94 440.91 672.03 C 436.64 671.95 432.37 672.03 428.10 671.88 C 428.10 671.19 428.10 669.82 428.10 669.13 Z" />
<path fill="#373b42" opacity="1.00" d=" M 447.05 671.88 C 446.29 671.28 446.57 669.89 446.93 669.12 C 453.00 668.84 459.09 669.12 465.17 669.02 C 465.26 669.94 465.36 670.88 465.46 671.82 C 462.87 671.97 460.28 672.03 457.70 671.98 C 457.58 678.32 457.69 684.66 457.64 691.01 C 456.81 691.00 455.17 691.00 454.35 691.00 C 454.32 684.65 454.40 678.31 454.31 671.97 C 451.88 671.96 449.46 672.12 447.05 671.88 Z" />
<path fill="#373b42" opacity="1.00" d=" M 477.89 673.13 C 481.04 667.36 488.67 668.08 493.90 670.15 C 493.93 671.36 493.96 672.58 493.99 673.80 C 490.43 671.98 485.32 669.69 481.89 672.87 C 479.95 674.44 481.45 676.73 483.00 677.87 C 486.62 678.45 490.77 678.56 493.57 681.24 C 495.72 684.21 494.46 688.60 491.32 690.31 C 487.11 692.70 482.07 691.49 477.78 689.99 C 477.73 688.99 477.65 686.98 477.61 685.98 C 481.53 688.39 486.48 690.27 490.79 687.61 C 491.18 686.04 491.92 683.76 490.13 682.78 C 486.67 681.00 481.94 681.94 479.10 678.87 C 477.68 677.28 478.01 675.08 477.89 673.13 Z" />
<path fill="#373b42" opacity="1.00" d=" M 502.47 674.70 C 505.23 673.29 508.23 674.44 510.97 675.23 C 511.00 676.13 511.04 677.91 511.07 678.80 C 508.72 677.45 506.00 676.28 503.29 677.25 C 499.63 679.52 500.19 684.67 502.23 687.87 C 505.21 689.28 508.33 688.37 511.01 686.73 C 511.02 687.57 511.02 689.24 511.03 690.08 C 507.29 691.78 502.02 692.14 499.28 688.53 C 496.36 684.24 497.11 676.71 502.47 674.70 Z" />
<path fill="#373b42" opacity="1.00" d=" M 514.52 677.77 C 513.56 674.09 517.59 674.21 520.04 673.98 C 522.75 673.82 525.33 674.98 527.09 677.03 C 527.46 681.71 527.31 686.42 527.32 691.12 C 526.06 690.91 523.89 691.57 524.33 689.57 C 522.02 691.27 518.80 692.49 516.07 691.03 C 513.25 689.71 511.94 685.63 514.06 683.14 C 516.62 679.96 521.17 680.74 524.73 679.66 C 524.32 679.01 523.50 677.70 523.09 677.04 C 520.20 676.87 517.31 676.98 514.52 677.77 M 516.00 687.06 C 517.80 690.14 522.20 689.08 524.26 686.89 C 524.34 685.47 524.37 684.06 524.36 682.65 C 521.33 682.88 515.50 682.56 516.00 687.06 Z" />
<path fill="#373b42" opacity="1.00" d=" M 537.16 675.10 C 540.08 673.28 544.37 673.82 545.90 677.18 C 546.76 681.76 546.17 686.46 546.31 691.10 C 545.56 691.05 544.04 690.97 543.28 690.93 C 543.01 686.27 544.40 681.19 542.07 676.91 C 539.74 676.97 536.89 676.86 535.43 679.06 C 535.15 683.03 535.40 687.02 535.33 691.00 C 534.59 691.00 533.10 691.00 532.36 691.00 C 532.42 685.58 532.18 680.14 532.47 674.73 C 534.20 673.96 535.56 676.45 537.16 675.10 Z" />
<path fill="#373b42" opacity="1.00" d=" M 554.88 675.75 C 557.97 673.50 563.07 673.19 564.89 677.18 C 565.77 681.75 565.16 686.45 565.32 691.09 C 564.56 691.05 563.05 690.98 562.29 690.94 C 562.00 686.29 563.40 681.19 561.07 676.92 C 558.73 676.95 555.91 676.87 554.43 679.05 C 554.15 683.02 554.40 687.01 554.33 691.00 C 553.58 691.00 552.10 691.00 551.36 691.00 C 551.43 685.55 551.15 680.10 551.49 674.67 C 552.76 674.47 553.89 674.83 554.88 675.75 Z" />
<path fill="#373b42" opacity="1.00" d=" M 572.00 675.99 C 575.14 672.87 581.45 673.43 583.34 677.67 C 584.32 679.27 583.93 681.21 584.07 683.00 C 579.98 683.01 575.91 682.97 571.83 683.02 C 572.33 685.09 573.13 687.68 575.50 688.24 C 578.41 689.41 581.34 687.85 584.01 686.79 C 584.01 687.58 584.00 689.16 583.99 689.95 C 580.12 691.53 575.12 692.25 571.65 689.41 C 568.07 685.90 568.04 679.23 572.00 675.99 M 571.80 680.95 C 574.94 681.02 578.08 681.00 581.23 680.98 C 581.34 678.19 578.80 675.93 576.03 676.72 C 573.65 676.75 572.76 679.20 571.80 680.95 Z" />
<path fill="#373b42" opacity="1.00" d=" M 588.36 674.72 C 589.09 674.71 590.56 674.68 591.29 674.67 C 591.28 675.21 591.26 676.27 591.24 676.80 C 593.06 675.71 594.91 674.38 597.17 674.65 C 599.04 674.09 598.49 676.61 598.82 677.64 C 596.22 677.52 593.59 677.78 591.39 679.28 C 591.31 683.18 591.31 687.09 591.33 691.00 C 590.59 691.00 589.10 691.00 588.36 691.00 C 588.34 685.57 588.34 680.14 588.36 674.72 Z" />
</g>
<g id="#336699ff">
<path fill="#336699" opacity="1.00" d=" M 103.97 25.98 C 176.31 25.89 248.66 25.89 321.00 25.97 C 321.11 62.99 321.15 100.01 320.99 137.03 C 248.67 137.12 176.34 137.08 104.01 137.05 C 103.81 100.03 103.97 63.00 103.97 25.98 M 297.08 32.16 C 297.02 34.47 297.00 36.78 297.00 39.09 C 294.67 38.51 292.10 37.65 289.81 38.83 C 284.43 41.40 283.93 49.32 287.30 53.68 C 289.72 56.43 293.69 55.65 296.48 53.96 C 297.37 54.82 298.48 55.19 299.78 55.07 C 299.70 47.47 299.79 39.86 299.73 32.26 C 299.07 32.23 297.74 32.18 297.08 32.16 M 110.06 33.21 C 109.94 40.47 110.04 47.73 110.01 54.99 C 114.48 54.87 119.37 55.69 123.43 53.33 C 129.69 49.57 129.95 39.22 123.87 35.16 C 119.78 32.54 114.67 33.41 110.06 33.21 M 150.75 33.90 C 150.75 35.40 150.76 36.90 150.77 38.41 C 148.36 38.39 148.40 41.45 150.81 41.39 C 151.01 45.36 149.96 49.66 151.64 53.38 C 153.30 55.90 159.82 56.54 159.49 52.51 C 157.54 52.43 154.42 53.66 153.66 50.99 C 153.30 47.67 153.54 44.33 153.51 41.00 C 155.48 41.00 157.44 40.99 159.41 40.98 C 159.87 37.42 155.68 39.12 153.52 38.71 C 153.50 37.17 153.51 35.63 153.41 34.10 C 152.74 34.05 151.41 33.95 150.75 33.90 M 196.07 33.90 C 196.13 36.26 196.31 38.77 193.87 40.06 C 197.06 41.06 195.79 44.53 195.99 47.02 C 196.05 49.62 195.56 53.17 198.26 54.66 C 200.54 55.50 205.11 56.18 204.77 52.49 C 202.83 52.45 199.56 53.68 198.91 50.92 C 198.55 47.63 198.80 44.32 198.76 41.01 C 200.87 40.56 205.25 42.43 204.61 38.79 C 202.65 38.75 200.70 38.71 198.76 38.69 C 198.74 37.15 198.72 35.62 198.65 34.09 C 198.00 34.04 196.71 33.95 196.07 33.90 M 133.16 41.24 C 130.14 45.34 131.00 52.83 136.30 54.63 C 139.47 55.95 142.89 54.99 145.99 53.99 C 146.00 53.23 146.02 51.69 146.03 50.92 C 143.28 52.24 140.03 53.59 137.06 52.14 C 134.98 51.32 134.59 48.96 133.93 47.11 C 138.07 46.94 142.22 47.00 146.37 46.99 C 146.18 44.50 146.18 41.66 144.19 39.83 C 140.98 37.17 135.59 37.82 133.16 41.24 M 165.88 38.83 C 159.60 41.53 159.51 52.41 166.15 54.67 C 169.31 55.94 172.69 54.98 175.76 53.96 C 175.79 53.22 175.85 51.75 175.88 51.01 C 173.08 52.14 169.91 53.57 166.92 52.19 C 164.78 51.38 164.26 48.98 163.75 47.02 C 167.87 46.97 172.00 47.00 176.13 46.99 C 175.91 44.73 175.99 42.21 174.42 40.38 C 172.39 37.95 168.66 37.76 165.88 38.83 M 183.91 38.84 C 178.62 41.01 177.85 48.68 181.18 52.82 C 184.05 56.07 189.05 55.69 192.60 53.82 C 192.60 53.13 192.59 51.75 192.59 51.06 C 190.49 51.80 188.40 53.08 186.10 52.72 C 180.52 51.76 180.45 41.89 185.98 40.80 C 188.34 40.31 190.48 41.73 192.59 42.54 C 192.51 41.70 192.35 40.01 192.27 39.17 C 189.56 38.52 186.61 37.68 183.91 38.84 M 212.40 38.45 C 206.89 39.66 205.52 46.82 207.64 51.34 C 209.54 56.19 216.90 56.96 220.10 53.04 C 222.44 49.93 222.63 45.45 220.92 42.01 C 219.44 38.95 215.59 37.59 212.40 38.45 M 249.93 39.01 C 249.83 39.66 249.64 40.95 249.54 41.59 C 252.89 41.02 259.20 39.02 259.68 44.16 C 256.31 44.65 252.31 44.16 249.65 46.67 C 247.14 48.95 248.09 53.50 251.06 54.93 C 253.52 56.32 256.25 55.02 258.66 54.23 C 259.87 54.49 261.05 54.84 262.21 55.28 C 262.04 50.58 262.81 45.75 261.75 41.15 C 259.34 37.18 253.75 38.01 249.93 39.01 M 270.93 39.78 C 269.84 39.25 268.72 38.84 267.56 38.52 C 267.44 44.02 267.51 49.52 267.52 55.01 C 268.20 55.01 269.56 54.99 270.25 54.99 C 270.36 50.84 269.97 46.66 270.45 42.53 C 272.58 40.76 277.35 39.36 278.29 43.02 C 278.77 46.92 278.45 50.87 278.41 54.79 C 279.12 54.87 280.53 55.01 281.23 55.09 C 281.01 50.47 281.84 45.71 280.70 41.20 C 279.07 37.20 273.94 37.90 270.93 39.78 M 226.07 38.91 C 225.87 44.28 226.07 49.66 226.01 55.03 C 226.71 55.00 228.10 54.94 228.79 54.91 C 228.81 51.26 228.56 47.59 228.84 43.94 C 229.95 41.31 233.49 41.44 235.92 41.63 C 235.95 40.90 236.01 39.44 236.04 38.71 C 233.38 38.46 230.95 39.51 228.72 40.83 C 228.71 40.27 228.69 39.16 228.68 38.60 C 228.03 38.68 226.73 38.84 226.07 38.91 M 172.49 68.33 C 172.49 70.57 172.49 72.81 172.48 75.06 C 170.09 74.47 167.42 73.67 165.10 74.92 C 159.82 77.67 159.39 85.76 163.09 89.96 C 165.46 92.38 168.98 91.47 171.70 90.27 C 172.89 90.53 174.06 90.86 175.21 91.26 C 175.22 83.56 175.38 75.85 175.13 68.14 C 174.47 68.19 173.15 68.28 172.49 68.33 M 180.82 68.17 C 180.66 75.77 180.79 83.37 180.75 90.97 C 184.51 90.16 188.66 92.88 192.03 90.20 C 196.11 86.87 196.36 79.85 193.08 75.90 C 190.50 73.05 186.34 74.48 183.43 75.94 C 183.48 73.41 183.51 70.88 183.54 68.35 C 182.86 68.31 181.50 68.21 180.82 68.17 M 233.08 68.15 C 232.92 75.78 233.04 83.41 233.01 91.04 C 233.71 91.00 235.11 90.94 235.81 90.90 C 235.77 89.23 235.73 87.55 235.70 85.88 C 236.10 85.38 236.88 84.39 237.28 83.89 C 239.59 86.21 241.81 88.62 244.07 91.00 C 244.99 90.99 246.83 90.99 247.75 90.98 C 245.29 87.92 241.70 85.49 240.02 81.98 C 242.17 79.42 244.81 77.32 246.91 74.70 C 241.60 73.97 239.65 80.13 235.83 82.62 C 235.68 77.85 235.77 73.07 235.75 68.29 C 235.08 68.26 233.74 68.19 233.08 68.15 M 110.05 69.21 C 109.95 76.48 110.03 83.74 110.01 91.00 C 110.76 91.00 112.25 91.00 113.00 91.00 C 112.95 87.47 112.97 83.95 113.11 80.43 C 116.15 80.50 119.19 80.52 122.24 80.49 C 122.24 79.87 122.23 78.62 122.23 78.00 C 119.15 78.01 116.07 78.01 112.99 78.00 C 112.99 75.92 112.99 73.83 113.00 71.75 C 116.58 71.75 120.16 71.75 123.74 71.75 C 123.75 71.12 123.76 69.88 123.76 69.26 C 119.19 69.25 114.62 69.27 110.05 69.21 M 129.80 74.77 C 124.21 77.07 123.32 85.53 127.65 89.43 C 131.07 92.13 135.84 91.46 139.59 89.83 C 139.59 89.14 139.60 87.77 139.60 87.08 C 136.80 88.09 133.70 89.57 130.75 88.22 C 128.55 87.43 128.02 85.02 127.52 83.02 C 131.67 82.98 135.81 83.04 139.96 82.90 C 139.64 80.77 139.74 78.39 138.34 76.60 C 136.44 74.00 132.62 73.75 129.80 74.77 M 147.73 74.80 C 142.22 77.14 141.36 85.45 145.57 89.37 C 148.99 92.13 153.81 91.47 157.58 89.84 C 157.59 89.15 157.60 87.78 157.60 87.09 C 154.65 88.19 151.20 89.71 148.18 87.93 C 146.33 86.97 146.04 84.81 145.54 83.01 C 149.67 82.98 153.80 83.03 157.93 82.93 C 157.64 80.79 157.76 78.39 156.34 76.60 C 154.42 73.98 150.56 73.74 147.73 74.80 M 199.52 77.57 C 202.89 77.04 209.15 75.02 209.71 80.16 C 206.33 80.66 202.31 80.14 199.65 82.67 C 197.12 84.97 198.10 89.56 201.12 90.96 C 203.57 92.31 206.26 91.01 208.66 90.23 C 209.87 90.49 211.05 90.84 212.22 91.28 C 212.15 86.84 212.54 82.38 212.02 77.97 C 211.30 74.88 207.66 74.08 204.93 74.23 C 202.63 74.43 198.83 74.08 199.52 77.57 M 221.00 90.72 C 223.84 91.90 226.88 91.02 229.56 89.88 C 229.57 89.17 229.59 87.76 229.60 87.06 C 227.49 87.80 225.37 89.09 223.05 88.71 C 217.50 87.71 217.47 77.85 223.00 76.80 C 225.38 76.31 227.51 77.76 229.64 78.55 C 230.60 74.13 225.00 73.92 222.07 74.48 C 214.72 76.00 214.08 88.21 221.00 90.72 M 128.88 104.06 C 128.60 111.70 128.82 119.35 128.75 126.99 C 129.44 127.00 130.80 127.00 131.48 127.01 C 131.57 119.51 131.38 112.02 131.59 104.53 C 130.91 104.41 129.56 104.18 128.88 104.06 M 110.05 105.22 C 109.96 112.47 110.03 119.73 110.00 127.00 C 114.79 126.99 119.58 127.00 124.36 126.99 C 124.30 126.40 124.16 125.22 124.09 124.63 C 120.45 124.32 116.80 124.51 113.15 124.61 C 113.00 121.81 112.91 119.00 113.06 116.20 C 116.73 116.21 120.41 116.39 124.08 116.15 C 124.15 115.56 124.31 114.37 124.38 113.78 C 120.60 113.73 116.82 113.74 113.05 113.79 C 113.02 111.77 113.00 109.76 112.98 107.74 C 116.75 107.77 120.52 107.77 124.29 107.67 C 124.30 107.09 124.31 105.92 124.31 105.33 C 119.56 105.18 114.80 105.29 110.05 105.22 M 232.09 105.13 C 232.06 105.88 232.00 107.36 231.97 108.10 C 232.74 108.04 234.27 107.92 235.04 107.86 C 235.17 107.04 235.33 106.23 235.54 105.43 C 234.39 105.33 233.24 105.23 232.09 105.13 M 170.37 106.21 C 170.44 107.52 170.52 108.84 170.59 110.16 C 169.98 110.62 168.76 111.53 168.15 111.99 C 168.76 112.37 169.97 113.13 170.58 113.51 C 170.52 116.66 170.33 119.82 170.61 122.96 C 170.69 124.88 172.00 126.85 174.02 127.11 C 176.17 127.38 179.75 127.76 179.24 124.50 C 177.29 124.48 174.10 125.59 173.42 122.94 C 173.05 119.66 173.30 116.35 173.22 113.06 C 175.15 113.02 177.08 113.00 179.01 112.97 C 179.00 112.41 178.99 111.30 178.98 110.75 C 177.08 110.75 175.17 110.75 173.27 110.76 C 173.25 109.15 173.24 107.53 173.23 105.92 C 172.51 105.99 171.08 106.14 170.37 106.21 M 140.06 111.00 C 134.19 113.84 134.11 124.07 140.30 126.54 C 143.53 127.97 147.06 127.01 150.25 126.01 C 150.25 125.25 150.25 123.73 150.25 122.98 C 147.40 124.28 143.96 125.70 140.98 123.94 C 139.05 123.06 138.79 120.80 138.37 118.98 C 142.45 118.99 146.53 119.01 150.61 119.00 C 150.46 116.44 150.38 113.49 148.28 111.68 C 145.98 109.92 142.63 109.77 140.06 111.00 M 158.47 110.72 C 152.55 112.84 151.78 122.00 156.43 125.76 C 159.48 128.04 163.51 127.36 166.77 125.95 C 166.79 125.20 166.83 123.72 166.85 122.98 C 164.20 124.16 160.91 125.83 158.22 123.83 C 155.38 121.27 155.45 115.90 158.45 113.50 C 161.18 111.69 164.33 113.36 166.86 114.68 C 166.79 113.57 166.72 112.46 166.65 111.35 C 164.02 110.55 161.17 109.67 158.47 110.72 M 182.33 110.72 C 182.17 116.12 182.31 121.52 182.21 126.92 C 182.91 126.95 184.30 127.00 184.99 127.03 C 185.14 123.08 184.63 119.08 185.28 115.17 C 187.28 113.46 189.96 113.43 192.44 113.48 C 192.34 112.81 192.15 111.47 192.05 110.79 C 189.48 110.23 187.20 111.55 185.16 112.93 C 185.04 112.35 184.80 111.19 184.68 110.61 C 184.09 110.64 182.92 110.69 182.33 110.72 M 199.31 110.47 C 191.04 112.48 192.10 127.56 201.04 127.54 C 207.10 128.15 210.32 121.16 208.70 116.07 C 207.96 111.88 203.32 109.25 199.31 110.47 M 213.35 110.48 C 213.14 115.95 213.33 121.42 213.20 126.89 C 213.90 126.93 215.29 127.00 215.99 127.04 C 216.08 123.02 215.80 118.99 216.11 114.98 C 217.64 112.60 223.20 111.34 224.03 115.01 C 224.52 118.97 224.16 122.98 224.23 126.96 C 224.92 126.97 226.30 127.00 226.99 127.01 C 226.78 122.46 227.54 117.78 226.50 113.31 C 224.89 109.11 219.56 109.94 216.48 111.88 C 215.72 110.84 214.51 110.67 213.35 110.48 M 232.34 110.63 C 232.15 116.05 232.32 121.48 232.21 126.91 C 232.90 126.94 234.29 127.00 234.99 127.04 C 235.00 121.64 234.99 116.24 235.00 110.84 C 234.11 110.77 233.22 110.70 232.34 110.63 M 243.43 126.50 C 246.40 127.93 249.78 127.18 252.61 125.81 C 252.60 125.12 252.57 123.73 252.56 123.04 C 250.49 123.80 248.43 125.07 246.14 124.73 C 240.54 123.82 240.43 113.98 245.92 112.81 C 248.33 112.28 250.50 113.76 252.66 114.56 C 253.54 110.11 248.04 109.93 245.04 110.48 C 237.94 112.01 237.11 123.48 243.43 126.50 M 257.35 111.31 C 254.71 112.54 254.08 116.68 256.53 118.43 C 258.82 119.87 261.66 119.83 264.14 120.79 C 265.79 121.10 265.57 123.73 264.28 124.33 C 261.21 126.04 257.75 124.33 254.97 122.87 C 254.98 123.66 255.01 125.25 255.02 126.05 C 258.34 127.13 262.10 128.02 265.38 126.33 C 267.70 125.20 268.97 121.89 267.26 119.73 C 264.89 116.52 259.17 118.72 257.53 114.88 C 259.17 110.74 264.29 112.97 267.27 114.17 C 267.23 113.41 267.13 111.89 267.08 111.13 C 263.91 110.40 260.35 109.52 257.35 111.31 Z" />
<path fill="#336699" opacity="1.00" d=" M 113.00 35.71 C 116.77 35.71 121.42 35.49 123.88 38.94 C 126.30 42.77 125.86 49.14 121.50 51.42 C 118.87 52.74 115.84 52.45 112.99 52.53 C 113.00 46.92 112.99 41.31 113.00 35.71 Z" />
<path fill="#336699" opacity="1.00" d=" M 133.85 44.79 C 134.98 42.80 136.30 40.27 139.01 40.46 C 141.76 40.07 143.39 42.58 143.72 44.98 C 140.43 45.08 137.13 45.04 133.85 44.79 Z" />
<path fill="#336699" opacity="1.00" d=" M 163.69 44.93 C 164.63 42.69 166.19 40.16 169.02 40.46 C 171.68 40.19 173.15 42.69 173.48 44.97 C 170.22 45.03 166.95 45.03 163.69 44.93 Z" />
<path fill="#336699" opacity="1.00" d=" M 212.19 41.15 C 214.73 39.99 218.20 41.14 218.90 44.00 C 219.94 47.23 219.24 52.56 215.09 52.97 C 208.81 53.98 207.48 43.73 212.19 41.15 Z" />
<path fill="#336699" opacity="1.00" d=" M 290.36 41.42 C 292.26 40.26 294.64 40.74 296.64 41.38 C 297.40 44.48 297.01 47.83 296.89 51.01 C 295.02 53.22 290.36 54.16 288.81 51.09 C 287.43 48.04 287.43 43.56 290.36 41.42 Z" />
<path fill="#336699" opacity="1.00" d=" M 251.01 51.01 C 250.37 46.34 256.44 46.83 259.47 46.42 C 259.49 48.01 259.52 49.61 259.55 51.21 C 257.12 52.75 252.57 54.47 251.01 51.01 Z" />
<path fill="#336699" opacity="1.00" d=" M 127.49 80.95 C 128.35 78.97 129.52 76.49 132.06 76.51 C 134.93 75.86 136.97 78.38 137.27 80.97 C 134.01 81.03 130.75 81.03 127.49 80.95 Z" />
<path fill="#336699" opacity="1.00" d=" M 145.49 80.95 C 146.34 78.95 147.54 76.49 150.10 76.50 C 152.95 75.88 154.97 78.39 155.26 80.98 C 152.00 81.03 148.74 81.03 145.49 80.95 Z" />
<path fill="#336699" opacity="1.00" d=" M 165.60 77.59 C 167.70 76.02 170.37 76.93 172.59 77.64 C 172.48 80.84 172.46 84.05 172.57 87.25 C 170.25 88.67 166.51 90.29 164.54 87.52 C 162.91 84.50 162.87 79.99 165.60 77.59 Z" />
<path fill="#336699" opacity="1.00" d=" M 183.39 78.62 C 185.59 77.14 188.98 75.56 191.21 77.83 C 192.99 80.57 193.04 84.51 191.32 87.30 C 189.45 89.78 186.08 88.96 183.53 88.28 C 183.52 85.06 183.50 81.84 183.39 78.62 Z" />
<path fill="#336699" opacity="1.00" d=" M 201.00 86.94 C 200.44 82.32 206.47 82.83 209.48 82.44 C 209.50 84.02 209.52 85.60 209.55 87.18 C 207.14 88.77 202.46 90.49 201.00 86.94 Z" />
<path fill="#336699" opacity="1.00" d=" M 138.30 116.97 C 139.03 114.42 141.05 111.93 144.01 112.49 C 146.49 112.45 147.45 114.92 148.12 116.86 C 144.85 117.03 141.57 117.06 138.30 116.97 Z" />
<path fill="#336699" opacity="1.00" d=" M 199.15 113.16 C 201.69 111.99 205.18 113.11 205.89 115.98 C 206.96 119.24 206.23 124.63 202.02 124.97 C 195.80 125.88 194.52 115.77 199.15 113.16 Z" />
<path fill="#336699" opacity="1.00" d=" M 193.29 615.00 C 193.57 613.99 192.78 611.72 194.13 611.48 C 281.42 611.22 368.72 611.45 456.02 611.37 C 469.20 611.53 482.41 611.05 495.57 611.61 L 496.15 611.60 C 443.42 611.61 390.69 611.60 337.97 611.60 C 289.85 611.71 241.72 611.41 193.60 611.74 C 193.38 620.62 193.39 629.51 193.63 638.40 C 230.60 638.62 267.56 638.52 304.53 638.47 C 304.37 662.98 304.60 687.49 304.42 712.00 C 304.49 713.60 304.13 715.38 305.30 716.71 C 305.65 716.90 306.35 717.28 306.70 717.47 C 338.24 717.67 369.79 717.30 401.34 717.65 C 369.24 717.79 337.13 717.54 305.03 717.77 C 304.83 717.63 304.43 717.34 304.24 717.20 C 304.39 691.05 304.32 664.90 304.28 638.75 C 274.21 638.59 244.13 638.72 214.05 638.69 C 207.22 638.51 200.35 639.05 193.55 638.43 C 192.98 630.65 193.51 622.81 193.29 615.00 Z" />
</g>
<g id="#cc33ccff">
<path fill="#cc33cc" opacity="1.00" d=" M 207.45 284.18 C 225.74 268.93 243.57 253.13 261.79 237.81 C 267.72 245.24 274.39 252.06 280.11 259.65 C 261.99 275.03 244.08 290.67 225.92 306.01 C 219.89 298.63 213.38 291.64 207.45 284.18 Z" />
</g>
<g id="#f44545ff">
<path fill="#f44545" opacity="1.00" d=" M 620.18 281.95 C 626.92 286.64 633.78 291.17 640.36 296.06 C 639.31 298.63 637.36 300.68 635.82 302.95 C 614.48 333.76 592.96 364.44 571.62 395.26 C 564.79 390.58 557.95 385.90 551.26 381.03 C 574.21 347.99 597.29 315.03 620.18 281.95 Z" />
<path fill="#f44545" opacity="1.00" d=" M 225.61 308.38 C 225.96 308.09 226.66 307.51 227.00 307.21 C 251.72 335.08 276.13 363.29 300.69 391.32 C 338.77 434.89 376.88 478.44 414.94 522.03 C 425.10 533.30 434.67 545.13 445.11 556.14 C 483.70 500.55 521.45 444.36 560.00 388.74 C 560.38 389.00 561.14 389.52 561.52 389.78 C 526.67 440.24 492.22 490.99 457.53 541.56 C 453.64 547.53 449.18 553.13 445.70 559.36 C 443.11 557.28 440.90 554.81 438.86 552.20 C 367.75 470.95 296.75 389.61 225.61 308.38 Z" />
</g>
<g id="#ff66ffff">
<path fill="#ff66ff" opacity="1.00" d=" M 152.00 331.95 C 169.92 316.35 188.10 301.05 206.02 285.45 C 212.16 292.78 218.49 299.95 224.65 307.26 C 206.66 322.79 188.44 338.06 170.63 353.80 C 164.49 346.45 158.12 339.31 152.00 331.95 Z" />
</g>
<g id="#73aefdff">
<path fill="#73aefd" opacity="1.00" d=" M 217.86 509.10 C 219.89 505.13 222.65 501.58 225.17 497.92 C 233.84 508.26 244.59 516.71 255.73 524.23 C 272.67 535.05 291.32 543.18 310.73 548.40 C 342.73 557.20 376.02 559.63 409.04 561.00 C 427.97 560.96 446.88 561.77 465.81 561.36 C 465.79 564.12 465.79 566.89 465.79 569.66 C 461.53 569.54 457.26 569.41 453.01 569.82 C 450.18 577.66 447.30 585.49 444.57 593.36 C 441.14 586.17 438.60 578.61 435.67 571.22 C 435.14 569.12 432.70 569.49 431.06 569.31 C 401.31 569.17 371.48 567.87 342.07 563.13 C 300.44 556.67 259.43 541.85 225.86 515.93 C 223.23 513.64 219.84 511.95 217.86 509.10 Z" />
</g>
<g id="#66ff99ff">
<path fill="#66ff99" opacity="1.00" d=" M 282.23 592.39 C 284.15 587.76 289.42 586.80 293.87 586.48 C 297.77 592.57 305.42 594.77 312.06 596.43 C 313.56 595.45 315.19 594.54 317.04 594.57 C 325.38 594.22 333.58 596.31 341.89 596.42 C 351.39 595.86 360.26 591.35 369.87 591.51 C 371.66 595.91 376.68 596.59 380.78 597.36 C 391.60 598.96 402.57 598.64 413.46 598.55 C 413.68 595.03 415.17 590.94 419.10 590.24 C 427.94 588.84 436.30 593.19 444.40 596.09 L 444.52 596.13 C 451.53 598.76 458.30 602.70 465.87 603.33 C 469.07 600.70 471.85 597.54 475.46 595.42 C 480.61 591.95 486.88 590.78 492.98 590.55 C 494.21 590.58 496.75 589.98 496.51 592.06 C 496.31 598.53 497.74 605.39 495.57 611.61 C 482.41 611.05 469.20 611.53 456.02 611.37 C 368.72 611.45 281.42 611.22 194.13 611.48 C 193.99 604.90 193.58 598.03 194.94 591.63 C 200.21 590.97 204.93 594.14 210.10 594.50 C 214.08 592.23 218.04 589.55 222.84 589.52 C 225.58 594.16 231.26 595.39 236.14 596.42 C 236.74 590.86 242.91 590.47 247.19 591.78 C 248.78 593.66 249.15 597.19 252.08 597.41 C 256.45 597.51 261.13 597.31 265.06 595.16 C 266.85 594.27 267.18 592.15 268.03 590.54 C 272.77 591.07 277.49 591.77 282.23 592.39 Z" />
</g>
</svg>
